<mxfile host="app.diagrams.net" agent="Mozilla/5.0 (Macintosh; Intel Mac OS X 10_15_7) AppleWebKit/537.36 (KHTML, like Gecko) Chrome/138.0.0.0 Safari/537.36" version="28.2.7" pages="4">
  <diagram name="Page-1" id="ks7lsYurKxmiqmLs9bYA">
    <mxGraphModel dx="578" dy="326" grid="1" gridSize="10" guides="1" tooltips="1" connect="1" arrows="1" fold="1" page="1" pageScale="1" pageWidth="850" pageHeight="1100" math="0" shadow="0">
      <root>
        <mxCell id="0" />
        <mxCell id="1" parent="0" />
        <mxCell id="YVMPV2zNOHMsI9lShX5k-3" value="" style="edgeStyle=orthogonalEdgeStyle;rounded=0;orthogonalLoop=1;jettySize=auto;html=1;" edge="1" parent="1" source="YVMPV2zNOHMsI9lShX5k-1" target="YVMPV2zNOHMsI9lShX5k-2">
          <mxGeometry relative="1" as="geometry" />
        </mxCell>
        <mxCell id="YVMPV2zNOHMsI9lShX5k-1" value="npm start" style="text;html=1;whiteSpace=wrap;strokeColor=none;fillColor=none;align=center;verticalAlign=middle;rounded=0;" vertex="1" parent="1">
          <mxGeometry x="175" y="160" width="60" height="30" as="geometry" />
        </mxCell>
        <mxCell id="YVMPV2zNOHMsI9lShX5k-5" value="" style="edgeStyle=orthogonalEdgeStyle;rounded=0;orthogonalLoop=1;jettySize=auto;html=1;" edge="1" parent="1" source="YVMPV2zNOHMsI9lShX5k-2" target="YVMPV2zNOHMsI9lShX5k-4">
          <mxGeometry relative="1" as="geometry" />
        </mxCell>
        <mxCell id="YVMPV2zNOHMsI9lShX5k-2" value="Runs Development Server : Port 4200" style="text;html=1;whiteSpace=wrap;strokeColor=none;fillColor=none;align=center;verticalAlign=middle;rounded=0;" vertex="1" parent="1">
          <mxGeometry x="315" y="160" width="60" height="30" as="geometry" />
        </mxCell>
        <mxCell id="YVMPV2zNOHMsI9lShX5k-7" value="" style="edgeStyle=orthogonalEdgeStyle;rounded=0;orthogonalLoop=1;jettySize=auto;html=1;" edge="1" parent="1" source="YVMPV2zNOHMsI9lShX5k-4" target="YVMPV2zNOHMsI9lShX5k-6">
          <mxGeometry relative="1" as="geometry" />
        </mxCell>
        <mxCell id="YVMPV2zNOHMsI9lShX5k-4" value="Index.html&lt;div&gt;&amp;lt;app-root&amp;gt;&lt;/div&gt;" style="text;html=1;whiteSpace=wrap;strokeColor=none;fillColor=none;align=center;verticalAlign=middle;rounded=0;" vertex="1" parent="1">
          <mxGeometry x="455" y="160" width="70" height="30" as="geometry" />
        </mxCell>
        <mxCell id="YVMPV2zNOHMsI9lShX5k-9" value="" style="edgeStyle=orthogonalEdgeStyle;rounded=0;orthogonalLoop=1;jettySize=auto;html=1;" edge="1" parent="1" source="YVMPV2zNOHMsI9lShX5k-6" target="YVMPV2zNOHMsI9lShX5k-8">
          <mxGeometry relative="1" as="geometry" />
        </mxCell>
        <mxCell id="YVMPV2zNOHMsI9lShX5k-6" value="main.ts&lt;div&gt;(bootstraps RootModule)&lt;/div&gt;" style="text;html=1;whiteSpace=wrap;strokeColor=none;fillColor=none;align=center;verticalAlign=middle;rounded=0;" vertex="1" parent="1">
          <mxGeometry x="605" y="160" width="70" height="30" as="geometry" />
        </mxCell>
        <mxCell id="YVMPV2zNOHMsI9lShX5k-11" value="" style="edgeStyle=orthogonalEdgeStyle;rounded=0;orthogonalLoop=1;jettySize=auto;html=1;" edge="1" parent="1" source="YVMPV2zNOHMsI9lShX5k-8" target="YVMPV2zNOHMsI9lShX5k-10">
          <mxGeometry relative="1" as="geometry" />
        </mxCell>
        <mxCell id="YVMPV2zNOHMsI9lShX5k-8" value="AppModule&lt;div&gt;(bootstraps RootComponent)&lt;/div&gt;" style="text;html=1;whiteSpace=wrap;strokeColor=none;fillColor=none;align=center;verticalAlign=middle;rounded=0;" vertex="1" parent="1">
          <mxGeometry x="605" y="270" width="70" height="30" as="geometry" />
        </mxCell>
        <mxCell id="YVMPV2zNOHMsI9lShX5k-10" value="AppComponent&lt;div&gt;[ Selector&lt;/div&gt;&lt;div&gt;Template&lt;/div&gt;&lt;div&gt;Style ]&lt;/div&gt;" style="text;html=1;whiteSpace=wrap;strokeColor=none;fillColor=none;align=center;verticalAlign=middle;rounded=0;" vertex="1" parent="1">
          <mxGeometry x="455" y="270" width="70" height="30" as="geometry" />
        </mxCell>
        <mxCell id="YVMPV2zNOHMsI9lShX5k-12" value="Angular App Bootstrap Process" style="text;strokeColor=none;fillColor=none;html=1;fontSize=24;fontStyle=1;verticalAlign=middle;align=center;" vertex="1" parent="1">
          <mxGeometry x="400" y="80" width="100" height="40" as="geometry" />
        </mxCell>
      </root>
    </mxGraphModel>
  </diagram>
  <diagram id="QHNzMSROpNr07KsiFAll" name="Page-2">
    <mxGraphModel dx="667" dy="376" grid="1" gridSize="10" guides="1" tooltips="1" connect="1" arrows="1" fold="1" page="1" pageScale="1" pageWidth="850" pageHeight="1100" math="0" shadow="0">
      <root>
        <mxCell id="0" />
        <mxCell id="1" parent="0" />
        <mxCell id="MbU1QBNvwqBvBmDBTrva-1" value="Banking App" style="text;html=1;whiteSpace=wrap;strokeColor=none;fillColor=none;align=center;verticalAlign=middle;rounded=0;" vertex="1" parent="1">
          <mxGeometry x="350" y="60" width="60" height="30" as="geometry" />
        </mxCell>
        <mxCell id="MbU1QBNvwqBvBmDBTrva-7" value="" style="edgeStyle=orthogonalEdgeStyle;rounded=0;orthogonalLoop=1;jettySize=auto;html=1;" edge="1" parent="1" source="MbU1QBNvwqBvBmDBTrva-2" target="MbU1QBNvwqBvBmDBTrva-6">
          <mxGeometry relative="1" as="geometry" />
        </mxCell>
        <mxCell id="MbU1QBNvwqBvBmDBTrva-2" value="Saving Acc" style="text;html=1;whiteSpace=wrap;strokeColor=none;fillColor=none;align=center;verticalAlign=middle;rounded=0;" vertex="1" parent="1">
          <mxGeometry x="180" y="130" width="60" height="30" as="geometry" />
        </mxCell>
        <mxCell id="MbU1QBNvwqBvBmDBTrva-9" value="" style="edgeStyle=orthogonalEdgeStyle;rounded=0;orthogonalLoop=1;jettySize=auto;html=1;" edge="1" parent="1" source="MbU1QBNvwqBvBmDBTrva-3" target="MbU1QBNvwqBvBmDBTrva-8">
          <mxGeometry relative="1" as="geometry" />
        </mxCell>
        <mxCell id="MbU1QBNvwqBvBmDBTrva-3" value="Current Acc" style="text;html=1;whiteSpace=wrap;strokeColor=none;fillColor=none;align=center;verticalAlign=middle;rounded=0;" vertex="1" parent="1">
          <mxGeometry x="300" y="130" width="60" height="30" as="geometry" />
        </mxCell>
        <mxCell id="MbU1QBNvwqBvBmDBTrva-11" value="" style="edgeStyle=orthogonalEdgeStyle;rounded=0;orthogonalLoop=1;jettySize=auto;html=1;" edge="1" parent="1" source="MbU1QBNvwqBvBmDBTrva-4" target="MbU1QBNvwqBvBmDBTrva-10">
          <mxGeometry relative="1" as="geometry" />
        </mxCell>
        <mxCell id="MbU1QBNvwqBvBmDBTrva-4" value="Home Loan" style="text;html=1;whiteSpace=wrap;strokeColor=none;fillColor=none;align=center;verticalAlign=middle;rounded=0;" vertex="1" parent="1">
          <mxGeometry x="440" y="130" width="60" height="30" as="geometry" />
        </mxCell>
        <mxCell id="MbU1QBNvwqBvBmDBTrva-13" value="" style="edgeStyle=orthogonalEdgeStyle;rounded=0;orthogonalLoop=1;jettySize=auto;html=1;" edge="1" parent="1" source="MbU1QBNvwqBvBmDBTrva-5" target="MbU1QBNvwqBvBmDBTrva-12">
          <mxGeometry relative="1" as="geometry" />
        </mxCell>
        <mxCell id="MbU1QBNvwqBvBmDBTrva-5" value="Credit Card" style="text;html=1;whiteSpace=wrap;strokeColor=none;fillColor=none;align=center;verticalAlign=middle;rounded=0;" vertex="1" parent="1">
          <mxGeometry x="560" y="130" width="60" height="30" as="geometry" />
        </mxCell>
        <mxCell id="MbU1QBNvwqBvBmDBTrva-6" value="Module" style="text;html=1;whiteSpace=wrap;strokeColor=none;fillColor=none;align=center;verticalAlign=middle;rounded=0;" vertex="1" parent="1">
          <mxGeometry x="180" y="240" width="60" height="30" as="geometry" />
        </mxCell>
        <mxCell id="MbU1QBNvwqBvBmDBTrva-8" value="Module" style="text;html=1;whiteSpace=wrap;strokeColor=none;fillColor=none;align=center;verticalAlign=middle;rounded=0;" vertex="1" parent="1">
          <mxGeometry x="300" y="240" width="60" height="30" as="geometry" />
        </mxCell>
        <mxCell id="MbU1QBNvwqBvBmDBTrva-10" value="Module" style="text;html=1;whiteSpace=wrap;strokeColor=none;fillColor=none;align=center;verticalAlign=middle;rounded=0;" vertex="1" parent="1">
          <mxGeometry x="440" y="240" width="60" height="30" as="geometry" />
        </mxCell>
        <mxCell id="MbU1QBNvwqBvBmDBTrva-12" value="Module" style="text;html=1;whiteSpace=wrap;strokeColor=none;fillColor=none;align=center;verticalAlign=middle;rounded=0;" vertex="1" parent="1">
          <mxGeometry x="560" y="240" width="60" height="30" as="geometry" />
        </mxCell>
        <mxCell id="MbU1QBNvwqBvBmDBTrva-14" value="Components" style="text;html=1;whiteSpace=wrap;strokeColor=none;fillColor=none;align=center;verticalAlign=middle;rounded=0;" vertex="1" parent="1">
          <mxGeometry x="170" y="270" width="60" height="30" as="geometry" />
        </mxCell>
        <mxCell id="MbU1QBNvwqBvBmDBTrva-15" value="Directives&lt;div&gt;Services&lt;/div&gt;&lt;div&gt;Pipes&lt;/div&gt;&lt;div&gt;Other Modules&lt;/div&gt;" style="text;html=1;whiteSpace=wrap;strokeColor=none;fillColor=none;align=center;verticalAlign=middle;rounded=0;" vertex="1" parent="1">
          <mxGeometry x="170" y="320" width="60" height="30" as="geometry" />
        </mxCell>
        <mxCell id="MbU1QBNvwqBvBmDBTrva-16" value="Directives&lt;div&gt;Services&lt;/div&gt;&lt;div&gt;Pipes&lt;/div&gt;&lt;div&gt;Other Modules&lt;/div&gt;" style="text;html=1;whiteSpace=wrap;strokeColor=none;fillColor=none;align=center;verticalAlign=middle;rounded=0;" vertex="1" parent="1">
          <mxGeometry x="300" y="320" width="60" as="geometry" />
        </mxCell>
        <mxCell id="MbU1QBNvwqBvBmDBTrva-17" value="Directives&lt;div&gt;Services&lt;/div&gt;&lt;div&gt;Pipes&lt;/div&gt;&lt;div&gt;Other Modules&lt;/div&gt;" style="text;html=1;whiteSpace=wrap;strokeColor=none;fillColor=none;align=center;verticalAlign=middle;rounded=0;" vertex="1" parent="1">
          <mxGeometry x="440" y="305" width="60" height="30" as="geometry" />
        </mxCell>
        <mxCell id="MbU1QBNvwqBvBmDBTrva-18" value="Directives&lt;div&gt;Services&lt;/div&gt;&lt;div&gt;Pipes&lt;/div&gt;&lt;div&gt;Other Modules&lt;/div&gt;" style="text;html=1;whiteSpace=wrap;strokeColor=none;fillColor=none;align=center;verticalAlign=middle;rounded=0;" vertex="1" parent="1">
          <mxGeometry x="560" y="300" width="60" height="30" as="geometry" />
        </mxCell>
      </root>
    </mxGraphModel>
  </diagram>
  <diagram id="uxOu6vJMyunOhVNV7N8A" name="Page-3">
    <mxGraphModel dx="723" dy="408" grid="1" gridSize="10" guides="1" tooltips="1" connect="1" arrows="1" fold="1" page="1" pageScale="1" pageWidth="850" pageHeight="1100" math="0" shadow="0">
      <root>
        <mxCell id="0" />
        <mxCell id="1" parent="0" />
        <mxCell id="oTNPBUGSgtYt87UU3Cop-4" style="edgeStyle=orthogonalEdgeStyle;rounded=0;orthogonalLoop=1;jettySize=auto;html=1;exitX=0.5;exitY=0;exitDx=0;exitDy=0;entryX=0.5;entryY=0;entryDx=0;entryDy=0;" edge="1" parent="1" source="oTNPBUGSgtYt87UU3Cop-1" target="oTNPBUGSgtYt87UU3Cop-3">
          <mxGeometry relative="1" as="geometry">
            <Array as="points">
              <mxPoint x="288" y="160" />
              <mxPoint x="605" y="160" />
            </Array>
          </mxGeometry>
        </mxCell>
        <mxCell id="oTNPBUGSgtYt87UU3Cop-1" value="Class" style="rounded=0;whiteSpace=wrap;html=1;" vertex="1" parent="1">
          <mxGeometry x="228" y="220" width="120" height="60" as="geometry" />
        </mxCell>
        <mxCell id="oTNPBUGSgtYt87UU3Cop-2" value="Model" style="text;html=1;whiteSpace=wrap;strokeColor=none;fillColor=none;align=center;verticalAlign=middle;rounded=0;" vertex="1" parent="1">
          <mxGeometry x="135" y="230" width="60" height="30" as="geometry" />
        </mxCell>
        <mxCell id="oTNPBUGSgtYt87UU3Cop-7" style="edgeStyle=orthogonalEdgeStyle;rounded=0;orthogonalLoop=1;jettySize=auto;html=1;exitX=0.5;exitY=1;exitDx=0;exitDy=0;entryX=0.5;entryY=1;entryDx=0;entryDy=0;" edge="1" parent="1" source="oTNPBUGSgtYt87UU3Cop-3" target="oTNPBUGSgtYt87UU3Cop-1">
          <mxGeometry relative="1" as="geometry">
            <Array as="points">
              <mxPoint x="605" y="340" />
              <mxPoint x="288" y="340" />
            </Array>
          </mxGeometry>
        </mxCell>
        <mxCell id="oTNPBUGSgtYt87UU3Cop-3" value="Template" style="rounded=0;whiteSpace=wrap;html=1;" vertex="1" parent="1">
          <mxGeometry x="545" y="220" width="120" height="60" as="geometry" />
        </mxCell>
        <mxCell id="oTNPBUGSgtYt87UU3Cop-5" value="[ Property Binding ]&amp;nbsp; / {{ Angular Interpolation }}" style="text;html=1;whiteSpace=wrap;strokeColor=none;fillColor=none;align=center;verticalAlign=middle;rounded=0;" vertex="1" parent="1">
          <mxGeometry x="305" y="170" width="300" height="30" as="geometry" />
        </mxCell>
        <mxCell id="oTNPBUGSgtYt87UU3Cop-6" value="data" style="text;html=1;whiteSpace=wrap;strokeColor=none;fillColor=none;align=center;verticalAlign=middle;rounded=0;" vertex="1" parent="1">
          <mxGeometry x="655" y="230" width="60" height="30" as="geometry" />
        </mxCell>
        <mxCell id="oTNPBUGSgtYt87UU3Cop-8" value="( Event Binding )" style="text;html=1;whiteSpace=wrap;strokeColor=none;fillColor=none;align=center;verticalAlign=middle;rounded=0;" vertex="1" parent="1">
          <mxGeometry x="385" y="310" width="130" height="30" as="geometry" />
        </mxCell>
        <mxCell id="oTNPBUGSgtYt87UU3Cop-9" value="2 way data binding&lt;div&gt;- Banana in the box : [ ( ngModel ) ]&lt;/div&gt;&lt;div&gt;- import FormsModule&lt;/div&gt;" style="text;html=1;whiteSpace=wrap;strokeColor=none;fillColor=none;align=center;verticalAlign=middle;rounded=0;fontStyle=1" vertex="1" parent="1">
          <mxGeometry x="348" y="380" width="230" height="60" as="geometry" />
        </mxCell>
        <mxCell id="oTNPBUGSgtYt87UU3Cop-10" value="Data Binding Concepts" style="text;strokeColor=none;fillColor=none;html=1;fontSize=24;fontStyle=1;verticalAlign=middle;align=center;" vertex="1" parent="1">
          <mxGeometry x="360" y="60" width="100" height="40" as="geometry" />
        </mxCell>
      </root>
    </mxGraphModel>
  </diagram>
  <diagram id="Y6OaLxfGJ5nxUL1uWx5q" name="Page-4">
    <mxGraphModel dx="559" dy="315" grid="1" gridSize="10" guides="1" tooltips="1" connect="1" arrows="1" fold="1" page="1" pageScale="1" pageWidth="850" pageHeight="1100" math="0" shadow="0">
      <root>
        <mxCell id="0" />
        <mxCell id="1" parent="0" />
        <mxCell id="GGzYbEUbKlrHmr2TQaxi-1" value="Nested Component Communication" style="text;strokeColor=none;fillColor=none;html=1;fontSize=24;fontStyle=1;verticalAlign=middle;align=center;" vertex="1" parent="1">
          <mxGeometry x="400" y="50" width="100" height="40" as="geometry" />
        </mxCell>
        <mxCell id="GGzYbEUbKlrHmr2TQaxi-5" style="edgeStyle=orthogonalEdgeStyle;rounded=0;orthogonalLoop=1;jettySize=auto;html=1;exitX=0.25;exitY=1;exitDx=0;exitDy=0;entryX=0.25;entryY=0;entryDx=0;entryDy=0;" edge="1" parent="1" source="GGzYbEUbKlrHmr2TQaxi-2" target="GGzYbEUbKlrHmr2TQaxi-3">
          <mxGeometry relative="1" as="geometry" />
        </mxCell>
        <mxCell id="GGzYbEUbKlrHmr2TQaxi-2" value="Users" style="rounded=0;whiteSpace=wrap;html=1;" vertex="1" parent="1">
          <mxGeometry x="390" y="140" width="120" height="60" as="geometry" />
        </mxCell>
        <mxCell id="GGzYbEUbKlrHmr2TQaxi-8" style="edgeStyle=orthogonalEdgeStyle;rounded=0;orthogonalLoop=1;jettySize=auto;html=1;exitX=0.75;exitY=0;exitDx=0;exitDy=0;entryX=0.75;entryY=1;entryDx=0;entryDy=0;" edge="1" parent="1" source="GGzYbEUbKlrHmr2TQaxi-3" target="GGzYbEUbKlrHmr2TQaxi-2">
          <mxGeometry relative="1" as="geometry" />
        </mxCell>
        <mxCell id="GGzYbEUbKlrHmr2TQaxi-3" value="UserImage / UserInfo" style="rounded=0;whiteSpace=wrap;html=1;" vertex="1" parent="1">
          <mxGeometry x="390" y="360" width="120" height="60" as="geometry" />
        </mxCell>
        <mxCell id="GGzYbEUbKlrHmr2TQaxi-4" value="user object" style="text;html=1;whiteSpace=wrap;strokeColor=none;fillColor=none;align=center;verticalAlign=middle;rounded=0;" vertex="1" parent="1">
          <mxGeometry x="300" y="150" width="60" height="30" as="geometry" />
        </mxCell>
        <mxCell id="GGzYbEUbKlrHmr2TQaxi-6" value="[ Property Binding ]" style="text;html=1;whiteSpace=wrap;strokeColor=none;fillColor=none;align=center;verticalAlign=middle;rounded=0;" vertex="1" parent="1">
          <mxGeometry x="280" y="200" width="120" height="30" as="geometry" />
        </mxCell>
        <mxCell id="GGzYbEUbKlrHmr2TQaxi-7" value="@Input()" style="text;html=1;whiteSpace=wrap;strokeColor=none;fillColor=none;align=center;verticalAlign=middle;rounded=0;" vertex="1" parent="1">
          <mxGeometry x="320" y="330" width="60" height="30" as="geometry" />
        </mxCell>
        <mxCell id="GGzYbEUbKlrHmr2TQaxi-9" value="@Output() + EventEmitter" style="text;html=1;whiteSpace=wrap;strokeColor=none;fillColor=none;align=center;verticalAlign=middle;rounded=0;" vertex="1" parent="1">
          <mxGeometry x="530" y="340" width="60" height="30" as="geometry" />
        </mxCell>
        <mxCell id="GGzYbEUbKlrHmr2TQaxi-10" value="( Event Binding )" style="text;html=1;whiteSpace=wrap;strokeColor=none;fillColor=none;align=center;verticalAlign=middle;rounded=0;" vertex="1" parent="1">
          <mxGeometry x="520" y="180" width="100" height="30" as="geometry" />
        </mxCell>
      </root>
    </mxGraphModel>
  </diagram>
</mxfile>
